Coordinates
version=1
nRows=11
nColumns=40
inDegrees=yes

Units are S.I. units (second, meters, Newtons, ...)
If the header above contains a line with 'inDegrees', this indicates whether rotational values are in degrees (yes) or radians (no).

endheader
time	pelvis_tilt	pelvis_list	pelvis_rotation	pelvis_tx	pelvis_ty	pelvis_tz	hip_flexion_r	hip_adduction_r	hip_rotation_r	knee_angle_r	knee_angle_r_beta	ankle_angle_r	subtalar_angle_r	mtp_angle_r	hip_flexion_l	hip_adduction_l	hip_rotation_l	knee_angle_l	knee_angle_l_beta	ankle_angle_l	subtalar_angle_l	mtp_angle_l	lumbar_extension	lumbar_bending	lumbar_rotation	arm_flex_r	arm_add_r	arm_rot_r	elbow_flex_r	pro_sup_r	wrist_flex_r	wrist_dev_r	arm_flex_l	arm_add_l	arm_rot_l	elbow_flex_l	pro_sup_l	wrist_flex_l	wrist_dev_l
      9.32500000	     28.02536438	     -4.72400211	    178.36744263	      0.38496797	      0.84408814	     -0.57525124	     77.39514360	    -10.90596428	      4.19595832	     59.06680327	      1.03091020	     11.51317953	      0.00000000	      0.00000000	     73.39607156	     -7.94305649	     -6.15054818	     58.01113580	      1.01248532	      9.23333325	      0.00000000	      0.00000000	    -51.07385889	     -2.90806614	     -5.96369433	     61.38290876	      1.51785240	      6.31047190	     20.28659932	      3.45833263	      0.00000000	      0.00000000	     56.70725169	    -16.58367883	     25.79507481	     25.99714114	     88.66242984	      0.00000000	      0.00000000
      9.33000000	     27.98788586	     -4.73104415	    178.32161290	      0.38475784	      0.84471006	     -0.57515874	     77.29040739	    -10.88592882	      4.18554824	     58.97857120	      1.02937026	     11.43633035	      0.00000000	      0.00000000	     73.27908631	     -7.96321701	     -6.18882675	     57.92563037	      1.01099297	      9.18795651	      0.00000000	      0.00000000	    -50.90271832	     -2.93222846	     -5.94203576	     61.21619121	      1.52747084	      6.28784022	     20.24626662	      3.44444117	      0.00000000	      0.00000000	     56.52054990	    -16.56372381	     25.82406470	     25.95068002	     88.66740931	      0.00000000	      0.00000000
      9.33500000	     27.58981787	     -4.81382152	    178.42535052	      0.38390121	      0.84740785	     -0.57470029	     76.50833980	    -11.09383156	      4.16476362	     58.47383359	      1.02056092	     11.54355140	      0.00000000	      0.00000000	     72.43398752	     -7.69472916	     -6.29162783	     57.29664067	      1.00001503	      9.16304113	      0.00000000	      0.00000000	    -51.32076248	     -2.87698230	     -6.05361264	     60.96892697	      1.32063425	      6.69980773	     20.77663823	      3.61168419	      0.00000000	      0.00000000	     56.58118672	    -16.49446913	     25.65650385	     26.02293890	     88.68753802	      0.00000000	      0.00000000
      9.34000000	     27.55494832	     -4.82229741	    178.36374367	      0.38369428	      0.84788586	     -0.57475578	     76.43292967	    -11.05821516	      4.15135708	     58.42375360	      1.01968686	     11.46388475	      0.00000000	      0.00000000	     72.33297020	     -7.73141677	     -6.31433175	     57.24726501	      0.99915326	      9.15324330	      0.00000000	      0.00000000	    -51.13290925	     -2.93800591	     -6.01461828	     60.80178196	      1.34008242	      6.69266542	     20.68880753	      3.58620471	      0.00000000	      0.00000000	     56.40509197	    -16.48634203	     25.68322269	     25.96759281	     88.68424900	      0.00000000	      0.00000000
      9.34500000	     27.65876264	     -4.78556672	    178.32588930	      0.38378202	      0.84862048	     -0.57477154	     76.39701627	    -10.99931199	      4.08705603	     58.17413958	      1.01533028	     11.28384693	      0.00000000	      0.00000000	     72.25756671	     -7.78002213	     -6.38509762	     56.92818786	      0.99358432	      9.20137871	      0.00000000	      0.00000000	    -50.84774153	     -2.94892748	     -5.95962651	     60.71146417	      1.37900394	      6.68752216	     20.60906594	      3.51976388	      0.00000000	      0.00000000	     56.26915811	    -16.48459130	     25.71419333	     25.95498146	     88.66602783	      0.00000000	      0.00000000
      9.35000000	     27.62054250	     -4.52642360	    178.39685150	      0.38370911	      0.84969089	     -0.57461913	     76.06011331	    -10.95915135	      3.81853068	     57.84679470	      1.00961703	     11.29583830	      0.00000000	      0.00000000	     72.11777827	     -7.72855600	     -5.98749564	     56.67785073	      0.98921511	      9.16214690	      0.00000000	      0.00000000	    -50.73238006	     -2.69355772	     -5.77938520	     60.60598877	      1.26121215	      7.15180072	     20.57554891	      3.57634909	      0.00000000	      0.00000000	     56.20227360	    -16.44243404	     25.84141640	     25.87681137	     88.67812168	      0.00000000	      0.00000000
      9.35500000	     27.71182604	     -4.57167739	    178.34512970	      0.38378114	      0.85038641	     -0.57467451	     76.03909638	    -10.91352119	      3.84269033	     57.61443436	      1.00556158	     11.16246155	      0.00000000	      0.00000000	     72.04386234	     -7.73172819	     -6.06812031	     56.40870650	      0.98451766	      9.11286363	      0.00000000	      0.00000000	    -50.44082255	     -2.78193894	     -5.77552676	     60.47995288	      1.31287191	      7.12460516	     20.48768383	      3.48459660	      0.00000000	      0.00000000	     56.01846641	    -16.47005430	     25.88450667	     25.88224942	     88.65747926	      0.00000000	      0.00000000
      9.36000000	     27.68708601	     -4.58272778	    178.30103044	      0.38360300	      0.85095791	     -0.57471815	     75.95100635	    -10.88542196	      3.83394746	     57.53839960	      1.00423452	     11.10656986	      0.00000000	      0.00000000	     71.93510446	     -7.74771782	     -6.08588274	     56.31926146	      0.98295654	      9.07823936	      0.00000000	      0.00000000	    -50.23310004	     -2.83063555	     -5.74653973	     60.31567469	      1.33505059	      7.11958231	     20.40514577	      3.46435446	      0.00000000	      0.00000000	     55.83270741	    -16.46043509	     25.91787954	     25.83157996	     88.66182745	      0.00000000	      0.00000000
      9.36500000	     27.74711969	     -4.55803986	    178.25566120	      0.38371977	      0.85238151	     -0.57479920	     75.68190438	    -10.74747528	      3.91548597	     56.97747461	      0.99444453	     11.10932332	      0.00000000	      0.00000000	     71.71083331	     -7.67387923	     -5.92590542	     55.78571765	      0.97364445	      9.03566231	      0.00000000	      0.00000000	    -50.06023792	     -2.84954429	     -5.71044101	     60.18443505	      1.27281726	      7.53942863	     20.48412676	      3.53688149	      0.00000000	      0.00000000	     55.72944979	    -16.61559099	     26.26052139	     25.97417238	     88.69648528	      0.00000000	      0.00000000
      9.37000000	     27.66267020	     -4.42694663	    178.18841106	      0.38352597	      0.85369885	     -0.57496661	     75.34522666	    -10.62644108	      3.76910336	     56.65278378	      0.98877761	     11.05163211	      0.00000000	      0.00000000	     71.45850561	     -7.74983005	     -5.80580248	     55.50775871	      0.96879315	      8.96176034	      0.00000000	      0.00000000	    -49.98593776	     -2.80807101	     -5.53460546	     60.05047628	      1.16486309	      7.98143799	     20.41739865	      3.83160555	      0.00000000	      0.00000000	     55.66753069	    -16.50492182	     26.23124569	     25.80876638	     88.71573578	      0.00000000	      0.00000000
      9.37500000	     28.16229605	     -5.13002051	    177.80780211	      0.38429321	      0.85330223	     -0.57533731	     76.12907171	    -10.41284633	      4.68460128	     56.54353482	      0.98687085	     10.61075547	      0.00000000	      0.00000000	     71.67534788	     -7.74300122	     -6.45874081	     55.14388418	      0.96244234	      9.03316196	      0.00000000	      0.00000000	    -49.20331773	     -3.66129824	     -5.78154713	     59.13499741	      0.58266756	     10.39525651	     20.93580092	      8.05382869	      0.00000000	      0.00000000	     55.27151599	    -16.41037532	     25.47830749	     25.78536929	     88.81567802	      0.00000000	      0.00000000
